<?xml version="1.0" standalone="no"?>
<!DOCTYPE svg PUBLIC "-//W3C//DTD SVG 20010904//EN"
 "http://www.w3.org/TR/2001/REC-SVG-20010904/DTD/svg10.dtd">
<svg version="1.0" xmlns="http://www.w3.org/2000/svg"
 width="440.000000pt" height="440.000000pt" viewBox="0 0 440.000000 440.000000"
 preserveAspectRatio="xMidYMid meet">
<metadata>
Created by potrace 1.14, written by Peter Selinger 2001-2017
</metadata>
<g transform="translate(0.000000,440.000000) scale(0.100000,-0.100000)"
fill="#000000" stroke="none">
<path d="M1445 3314 c-368 -295 -673 -541 -677 -549 -8 -13 185 -265 202 -265
4 0 262 203 572 450 309 248 568 449 575 448 12 -3 1037 -864 1066 -895 14
-17 16 -79 17 -618 1 -409 -2 -615 -9 -648 -17 -74 -48 -125 -112 -189 -67
-68 -140 -105 -232 -119 -74 -12 -541 -8 -554 4 -4 5 -8 158 -8 340 l0 332
-85 3 c-47 2 -122 0 -166 -3 l-81 -7 -5 -491 c-2 -271 -2 -500 0 -510 5 -18
27 -18 486 -15 463 4 484 5 556 27 266 80 465 284 530 546 19 76 20 115 20
790 l0 711 -705 594 c-388 327 -709 596 -713 597 -4 1 -308 -239 -677 -533z"/>
<path d="M1431 2707 c-48 -24 -66 -63 -64 -135 3 -160 13 -211 45 -248 51 -58
67 -62 274 -70 104 -3 191 -8 194 -9 5 -3 400 -19 476 -19 93 -1 133 55 127
176 -8 178 -24 222 -90 261 -38 22 -46 22 -520 42 -420 18 -412 18 -442 2z"/>
<path d="M2534 2469 c3 -34 6 -72 6 -84 0 -21 4 -22 126 -28 69 -3 129 -9 134
-13 4 -5 10 -44 14 -86 l6 -76 -83 -25 c-45 -14 -143 -43 -217 -65 -468 -139
-445 -130 -481 -189 -20 -32 -21 -44 -16 -140 3 -57 7 -106 8 -108 2 -1 41 -6
85 -10 l82 -7 -5 85 c-6 92 -3 99 58 111 13 3 83 23 154 44 72 22 211 64 310
93 99 29 193 61 209 72 16 11 37 40 48 64 17 40 18 53 9 154 -12 124 -28 167
-80 210 -47 39 -79 46 -240 53 l-134 6 7 -61z"/>
</g>
</svg>
